<svg xmlns="http://www.w3.org/2000/svg" width="160" height="160" viewBox="0 0 160 160"><g fill="none" fill-rule="evenodd"><path d="M0 0h160v160H0z"/><g transform="translate(0 10)"><g opacity=".1" transform="translate(0 2)"><path fill="#009CE3" fill-rule="nonzero" d="M1.87 82.074c2.528 10.802 7.879 20.14 16.334 24.667 17.573 9.406 57.203 4.555 86.78-1.02a67.729 67.729 0 0 0 38.514-22.017L1.87 82.074zm155.102-50.845h-16.229a1.403 1.403 0 1 1 0-2.806h2.806a1.403 1.403 0 1 1 0-2.805h-2.003a1.403 1.403 0 1 1 0-2.805h8.47c-1.88-.874-4.077-1.496-6.607-1.822-23.096-2.967-31.342-1.004-34.25 1.02-3.59 2.489-7.593 4.32-11.872 5.203-14.25 2.939-40.9 6.477-65.054-1.133-12.005-3.785-20.928 2.609-26.276 13.29H159.79c-.2-3.105-.802-5.97-1.906-8.48a1.395 1.395 0 0 1-.911.338zM.494 59.529a71.492 71.492 0 0 0 .628 18.847l142.484 5.21a66.97 66.97 0 0 0 9.9-15.097L.494 59.529zm56.353 13.446h-2.805a1.403 1.403 0 1 1 0 2.805H37.813a1.403 1.403 0 1 1 0-2.805h2.806a1.403 1.403 0 1 1 0-2.806h-2.003a1.403 1.403 0 1 1 0-2.805h16.228a1.403 1.403 0 0 1 0 2.805h2.003a1.403 1.403 0 1 1 0 2.806zm102.95-33.509L4.237 43.251c-1.89 4.863-3.138 10.362-3.72 16.063H157.07a66.455 66.455 0 0 0 2.26-10.239c.467-3.351.653-6.59.465-9.609zm-127.7 12.398h-2.805a1.403 1.403 0 0 1 0 2.806H13.064a1.403 1.403 0 1 1 0-2.806h2.805a1.403 1.403 0 1 1 0-2.805h-2.003a1.403 1.403 0 1 1 0-2.806h16.228a1.403 1.403 0 0 1 0 2.806h2.004a1.403 1.403 0 0 1 0 2.805z"/><g fill="#009CE3" fill-rule="nonzero"><path d="M115.659 99.298c-1.257-.261-4.429-3.295-4.429-3.295s4.117-1.518 5.375-1.258a2.33 2.33 0 0 1-.946 4.551v.002zm-7.425 5.806c-1.283-.045-4.922-2.499-4.922-2.499s3.802-2.188 5.085-2.147a2.33 2.33 0 1 1-.163 4.646zm5.66-18.663c.165 1.274 2.944 4.669 2.944 4.669s1.83-3.99 1.667-5.263a2.33 2.33 0 0 0-4.61.594zm-8.598 6.9c.537 1.164 4.206 3.573 4.206 3.573s.553-4.354.016-5.519a2.33 2.33 0 1 0-4.222 1.947v-.002zm-7.437 7.852c.332 1.24 3.542 4.234 3.542 4.234s1.282-4.197.948-5.438a2.33 2.33 0 0 0-4.49 1.204z"/><path d="M115.659 99.298c-1.257-.261-4.429-3.295-4.429-3.295s4.117-1.518 5.375-1.258a2.33 2.33 0 0 1-.946 4.551v.002zm-7.425 5.806c-1.283-.045-4.922-2.499-4.922-2.499s3.802-2.188 5.085-2.147a2.33 2.33 0 1 1-.163 4.646zm-2.938-11.764c.537 1.165 4.206 3.574 4.206 3.574s.553-4.354.016-5.519a2.33 2.33 0 1 0-4.222 1.947v-.002zm-7.437 7.853c.332 1.24 3.542 4.234 3.542 4.234s1.282-4.197.948-5.438a2.33 2.33 0 0 0-4.49 1.204z" opacity=".25"/></g><path stroke="#535461" stroke-width="1.333" d="M95.876 95.426s.518-10.907 6.506-16.991a16.546 16.546 0 0 0 4.66-9.369c.224-1.685.293-3.386.207-5.084"/><path fill="#009CE3" fill-rule="nonzero" d="M112.31 68.098c-1.02.789-5.378 1.246-5.378 1.246s1.507-4.123 2.519-4.912a2.33 2.33 0 1 1 2.859 3.666zm-4.142 11.431c-1.272.17-5.27-1.639-5.27-1.639s3.382-2.798 4.659-2.968a2.33 2.33 0 1 1 .617 4.607h-.006zm-5.08 7.94c-1.225.382-5.472-.729-5.472-.729s2.86-3.33 4.085-3.712a2.33 2.33 0 0 1 1.387 4.437v.003zm-.848-19.485c.582 1.148 4.327 3.429 4.327 3.429s.403-4.368-.174-5.518a2.33 2.33 0 0 0-4.153 2.09zm-5.824 9.362c.894.921 5.154 1.977 5.154 1.977s-.922-4.29-1.815-5.212a2.33 2.33 0 0 0-3.339 3.236v-.001zm-4.411 9.873c.728 1.06 4.746 2.82 4.746 2.82s-.183-4.385-.908-5.445a2.33 2.33 0 0 0-3.837 2.62l-.001.005zm-59.24 42.917c7.428 2.497 16.49.978 24.918 1.154 1.155.024 2.375.096 3.3.527.926.43 1.382 1.133 2.016 1.729 2.362 2.227 7.2 2.943 11.43 2.565 4.23-.378 8.109-1.628 12.091-2.58 6.9-1.648 14.787-2.396 21.592-.601.625.164 1.282.353 1.951.289 1.493-.148 1.937-1.342 2.98-2.024 1.889-1.231 5.975-.897 6.8-2.52.486-.944-.63-1.927-1.845-2.577-4.651-2.486-11.305-2.896-17.392-2.512-6.087.383-12.072 1.441-18.191 1.445-7.623 0-14.99-1.623-22.538-2.288-5.23-.46-10.937-.404-15.84.945-5.299 1.477-6.47 4.772-11.272 6.448zm3.904-111.464h1.908a1.337 1.337 0 0 1 0-2.672h15.455a1.337 1.337 0 0 1 0 2.672h-1.908a1.335 1.335 0 0 1 0 2.67h2.671a1.337 1.337 0 0 1 0 2.673H39.34a1.337 1.337 0 0 1 0-2.672h-2.67a1.335 1.335 0 1 1 0-2.67z"/><g fill="#009CE3" fill-rule="nonzero" transform="translate(64 18.667)"><circle cx="17.557" cy="5.445" r="2.467"/><circle cx="1.346" cy="1.346" r="1.346"/></g><g fill="#009CE3" fill-rule="nonzero" transform="rotate(-11 97.385 -547.684)"><circle cx="2.467" cy="2.467" r="2.467"/><circle cx="42.627" cy="16.36" r="1.346"/></g><g fill="#009CE3" fill-rule="nonzero" transform="rotate(80 28.088 134.167)"><circle cx="2.589" cy="2.579" r="2.467"/><circle cx="19.961" cy="17.026" r="1.346"/></g><g fill="#009CE3" fill-rule="nonzero" transform="translate(7.071 109.805)"><circle cx="6.286" cy="1.446" r="1.346"/><circle cx="11.445" cy="7.506" r="1.346"/><circle cx="1.352" cy="11.159" r="1.346"/></g><ellipse cx="26.981" cy="136.641" fill="#009CE3" fill-rule="nonzero" rx="6.667" ry="1.346"/><ellipse cx="107.647" cy="136.641" fill="#009CE3" fill-rule="nonzero" rx="6.667" ry="1.346"/></g><path fill="#000" fill-rule="nonzero" d="M42.12 80.773s-1.966 4.19-.758 3.906c1.209-.283.758-3.906.758-3.906z" opacity=".1"/><g fill-rule="nonzero"><path fill="#A8A7A7" d="m38.939 76.477 35.548-6.202v36.082l-34.409-1.896-1.806-27.984z"/><path fill="#000" opacity=".05" d="M74.882 70v36.082l-34.409-1.895-1.806-27.985z"/><path fill="#B0ADAD" d="m74.521 70.275 43.429 3.42-2.403 31.4-41.026 1.262z"/><path fill="#000" opacity=".1" d="m74.667 70 43.43 3.42-2.404 31.4-41.026 1.262z"/><path fill="#C9C7C7" d="M87.873 59.316 74.521 70.329l43.429 3.42 7.098-11.27z"/><path fill="#C9C7C7" d="m25.29 64.505 32.603-4.177 16.725 10.003-36.215 6.201z"/><path fill="#E0E0E0" d="M82.426 79.512v49.332l-16.964-1.831-7.38-.792-2.248-.248-7.375-.797-10.187-1.098V76.345l36.21 2.593z"/><path fill="#CCC" d="M117.936 73.647v48.109l-13.597 2.747-6.613 1.336-15.281 3.089V79.596z"/><path fill="#CCC" opacity=".05" d="M117.491 74.667v48.109l-13.597 2.747-6.613 1.337L82 129.948V80.616z"/><path fill="#C8C6C6" d="m25.29 86.729 13.113-10.384 44.154 3.167-6.5 11.523z"/><path fill="#E0E0E0" opacity=".1" d="M25.334 86.384 38.446 76 82.6 79.168 76.1 90.69z"/><path fill="#BABABA" d="m117.936 73.647-35.491 5.949 11.551 10.889 38.016-6.711z"/><path fill="#FFF" opacity=".1" d="m118.158 74-35.491 5.95 11.551 10.889 38.016-6.712z"/><path fill="#9B9898" opacity=".252" d="m104.232 124.698-6.613 1.336v-10.28l6.194-1.643z"/><path fill="#FFF" opacity=".1" d="M65.378 120.349v6.8l-7.38-.792v-6.008zm-9.447 2.192v3.618l-7.374-.797v-2.821z"/></g><path fill="#006EFF" fill-rule="nonzero" d="M73.719 34.675s-6.407-.386-5.658 4.109c0 0-.15.794.57 1.155 0 0 .012-.338.657-.221.23.038.464.05.697.033.315-.02.614-.144.853-.352 0 0 1.802-.743 2.503-3.69 0 0 .52-.645.506-.81l-1.082.464s.369.78.077 1.43c0 0-.033-1.401-.242-1.37-.043 0-.562.272-.562.272s.636 1.359.155 2.349c0 0 .182-1.676-.354-2.251l-.762.445s.744 1.404.24 2.55c0 0 .13-1.758-.4-2.442l-.691.538s.7 1.385.273 2.336c0 0-.056-2.046-.423-2.202 0 0-.604.533-.695.752 0 0 .477 1.012.18 1.536 0 0-.182-1.364-.337-1.37 0 0-.602.903-.664 1.517a3.28 3.28 0 0 1 .517-1.608 1.806 1.806 0 0 0-.92.477s.093-.64 1.069-.695c0 0 .506-.686.63-.728 0 0-.97-.081-1.56.18 0 0 .518-.602 1.74-.337l.674-.556s-1.278-.169-1.821.018c0 0 .623-.533 2.004-.145l.742-.443s-1.089-.236-1.738-.15c0 0 .684-.37 1.956.03l.53-.238s-.798-.156-1.031-.182c-.233-.025-.246-.09-.246-.09a2.758 2.758 0 0 1 1.499.17s1.138-.41 1.114-.481z"/><path fill="#009CE3" fill-rule="nonzero" d="M109.719 46.008s-6.407-.386-5.658 4.109c0 0-.15.794.57 1.155 0 0 .012-.337.659-.22.23.038.464.05.696.033.312-.023.608-.146.843-.35 0 0 1.804-.746 2.506-3.693 0 0 .517-.643.497-.808l-1.082.462s.369.78.079 1.43c0 0-.036-1.401-.243-1.37-.042 0-.563.272-.563.272s.637 1.36.157 2.349c0 0 .182-1.676-.356-2.25l-.754.44s.744 1.404.24 2.55c0 0 .13-1.758-.4-2.443l-.69.54s.699 1.384.274 2.335c0 0-.056-2.047-.423-2.202 0 0-.604.533-.697.752 0 0 .479 1.011.182 1.536 0 0-.182-1.364-.337-1.371 0 0-.602.904-.664 1.517.03-.572.209-1.126.52-1.608a1.814 1.814 0 0 0-.923.477s.094-.639 1.07-.695c0 0 .498-.686.631-.728 0 0-.971-.08-1.56.18 0 0 .518-.601 1.737-.328l.674-.557s-1.28-.168-1.82.019c0 0 .623-.533 2.004-.145l.742-.444s-1.09-.234-1.74-.15c0 0 .686-.369 1.958.03l.53-.237s-.799-.157-1.033-.182c-.234-.025-.246-.09-.246-.09a2.763 2.763 0 0 1 1.5.17s1.14-.414 1.12-.485zM38.858 35.62s-5.146-3.85-6.985.32c0 0-.562.582-.159 1.278 0 0 .193-.272.675.179.17.159.36.297.563.411.275.153.593.213.905.169 0 0 1.916.369 4.12-1.707 0 0 .788-.253.862-.4l-1.161-.205s-.122.855-.72 1.238c0 0 .74-1.19.548-1.277-.04-.018-.619-.084-.619-.084s-.216 1.487-1.16 2.049c0 0 1.074-1.3.94-2.076l-.881-.047s-.15 1.583-1.202 2.264c0 0 1.074-1.398 1.011-2.26l-.873.07s-.177 1.54-1.055 2.1c0 0 1.077-1.74.856-2.071 0 0-.797.113-.995.244 0 0-.153 1.103-.692 1.383 0 0 .598-1.24.477-1.325 0 0-1 .423-1.393.905a3.29 3.29 0 0 1 1.318-1.059 1.816 1.816 0 0 0-1.031-.108s.428-.482 1.274.009c0 0 .793-.299.928-.262 0 0-.768-.602-1.403-.706 0 0 .765-.22 1.634.674l.875-.09s-.973-.842-1.531-.984c0 0 .814-.103 1.753.98l.863.039s-.78-.796-1.369-1.083c0 0 .774.068 1.617 1.101l.575.093s-.582-.57-.764-.718c-.182-.149-.156-.211-.156-.211a2.77 2.77 0 0 1 1.161.964s1.172.272 1.194.203zm48.437-21.542s-5.145-3.851-6.985.32c0 0-.561.582-.158 1.278 0 0 .192-.271.674.179a3 3 0 0 0 .565.41c.275.153.593.212.905.168 0 0 1.916.37 4.12-1.708 0 0 .788-.251.86-.401l-1.16-.2s-.12.854-.72 1.237c0 0 .741-1.19.549-1.277-.039-.018-.619-.084-.619-.084s-.223 1.49-1.167 2.049c0 0 1.073-1.3.941-2.076l-.882-.047s-.151 1.583-1.202 2.263c0 0 1.074-1.398 1.012-2.261l-.872.07S82.977 15.54 82.1 16.1c0 0 1.08-1.74.858-2.07 0 0-.797.113-.995.244 0 0-.153 1.103-.692 1.383 0 0 .598-1.24.477-1.327 0 0-1 .425-1.393.907a3.29 3.29 0 0 1 1.318-1.059 1.804 1.804 0 0 0-1.033-.108s.43-.482 1.276.009c0 0 .793-.3.928-.262 0 0-.768-.602-1.403-.708 0 0 .764-.217 1.632.675l.875-.09s-.971-.843-1.531-.986c0 0 .814-.101 1.755.981l.863.037s-.78-.795-1.37-1.08c0 0 .775.067 1.618 1.1l.573.093s-.583-.563-.765-.708c-.182-.145-.157-.209-.157-.209.47.208.872.541 1.162.964 0 0 1.172.257 1.2.193zm-61.17 4.175s-2.057-6.088-5.937-3.696c0 0-.792.169-.855.963 0 0 .312-.115.45.526.052.228.13.449.231.659.14.283.367.513.648.656 0 0 1.369 1.39 4.363.93 0 0 .79.24.936.157l-.843-.828s-.583.636-1.295.61c0 0 1.287-.559 1.18-.74-.022-.035-.462-.417-.462-.417s-1.021 1.1-2.117 1.028c0 0 1.62-.462 1.95-1.18l-.698-.538s-1.021 1.217-2.274 1.18c0 0 1.686-.541 2.113-1.29l-.76-.436s-1.01 1.168-2.06 1.131c0 0 1.875-.821 1.88-1.219 0 0-.72-.36-.957-.362 0 0-.752.82-1.349.746 0 0 1.194-.682 1.143-.822 0 0-1.062-.218-1.66-.042a3.286 3.286 0 0 1 1.685-.127 1.82 1.82 0 0 0-.79-.674s.627-.154 1.047.73c0 0 .822.204.91.31 0 0-.29-.929-.753-1.377 0 0 .753.254.959 1.487l.772.421s-.319-1.25-.703-1.686c0 0 .73.378.888 1.802l.692.521s-.192-1.099-.516-1.669c0 0 .6.496.708 1.826l.42.401s-.155-.799-.22-1.025c-.064-.226-.011-.24-.011-.24.268.437.41.94.41 1.453 0 0 .815.875.874.83zm97.101 10.454s-6.39-.711-5.862 3.822c0 0-.19.786.506 1.18 0 0 .029-.337.674-.185.229.05.462.072.695.07a1.45 1.45 0 0 0 .868-.31s1.84-.652 2.698-3.56c0 0 .55-.615.538-.782l-1.105.408s.338.797 0 1.431c0 0 .036-1.401-.168-1.38-.042 0-.575.244-.575.244s.566 1.39.037 2.36c0 0 .266-1.666-.241-2.266l-.784.405s.674 1.441.11 2.56c0 0 .219-1.75-.275-2.46l-.717.507s.627 1.418.154 2.347c0 0 .049-2.047-.31-2.22 0 0-.631.505-.734.714 0 0 .427 1.028.105 1.543 0 0-.113-1.371-.262-1.385 0 0-.647.872-.742 1.488a3.297 3.297 0 0 1 .6-1.582c-.35.048-.677.198-.944.43 0 0 .125-.632 1.103-.639 0 0 .531-.66.674-.695 0 0-.966-.13-1.567.102 0 0 .547-.577 1.751-.242l.71-.52s-1.283-.26-1.826-.092c0 0 .65-.505 2.01-.042l.764-.406s-1.078-.29-1.73-.238c0 0 .703-.337 1.952.13l.543-.21s-.79-.198-1.023-.235c-.233-.037-.241-.101-.241-.101a2.773 2.773 0 0 1 1.49.243s1.136-.363 1.124-.434zM48.661 4.44S46.888-1.737 42.9.48c0 0-.8.123-.899.923 0 0 .317-.1.427.546.04.232.108.458.202.674.125.29.342.532.617.688 0 0 1.305 1.45 4.316 1.126 0 0 .779.274.927.2l-.797-.867s-.612.61-1.32.553c0 0 1.308-.506 1.207-.686-.02-.038-.442-.44-.442-.44s-1.069 1.055-2.161.932c0 0 1.64-.388 2.001-1.086l-.674-.57s-1.076 1.17-2.325 1.08c0 0 1.7-.468 2.168-1.194l-.739-.47s-1.07 1.12-2.109 1.036c0 0 1.91-.737 1.934-1.133 0 0-.705-.391-.942-.405 0 0-.788.786-1.386.685 0 0 1.224-.629 1.18-.77 0 0-1.052-.265-1.657-.119a3.29 3.29 0 0 1 1.686-.048 1.81 1.81 0 0 0-.76-.709s.635-.126 1.012.776c0 0 .811.24.896.35 0 0-.248-.942-.692-1.409 0 0 .742.287.892 1.528l.752.457S45.95.863 45.586.418c0 0 .712.41.808 1.84l.674.55s-.143-1.105-.44-1.685c0 0 .578.522.626 1.854l.4.422s-.117-.806-.168-1.035c-.05-.23 0-.262 0-.262.25.449.37.958.346 1.47 0 0 .769.908.83.867z" opacity=".1"/><path fill="#006EFF" fill-rule="nonzero" d="M94.556 44.017s-3.276-5.528-6.575-2.382c0 0-.742.32-.638 1.12 0 0 .282-.18.552.42.096.212.218.412.362.596.194.249.464.426.769.506 0 0 1.627 1.075 4.461 0 0 0 .823.069.948-.04l-.99-.638s-.438.743-1.14.867c0 0 1.142-.815.998-.968-.03-.032-.54-.315-.54-.315s-.77 1.29-1.854 1.446c0 0 1.49-.789 1.664-1.554l-.795-.375s-.747 1.405-1.98 1.629c0 0 1.53-.878 1.8-1.7l-.834-.27s-.755 1.35-1.78 1.535c0 0 1.662-1.194 1.585-1.583 0 0-.78-.202-1.012-.155 0 0-.565.96-1.17 1.011 0 0 1.027-.913.95-1.042 0 0-1.087.009-1.634.304a3.291 3.291 0 0 1 1.623-.472 1.812 1.812 0 0 0-.912-.496s.582-.281 1.18.496c0 0 .843.028.956.114 0 0-.477-.843-1.023-1.19 0 0 .789.091 1.246 1.255l.843.252s-.572-1.156-1.037-1.497c0 0 .792.218 1.244 1.578l.784.366s-.416-1.033-.843-1.517c0 0 .69.359 1.072 1.637l.494.307s-.317-.75-.428-.958c-.111-.207-.064-.253-.064-.253.353.372.597.834.703 1.336 0 0 .966.686 1.015.63zM73.431 56.272s.168-6.423-4.295-5.518c0 0-.799-.123-1.136.609 0 0 .337 0 .243.649a2.96 2.96 0 0 0-.01.698c.03.315.163.611.379.843 0 0 .804 1.777 3.773 2.38 0 0 .66.498.825.47l-.506-1.065s-.767.395-1.426.127c0 0 1.399-.083 1.36-.289 0-.042-.29-.554-.29-.554s-1.339.683-2.342.234c0 0 1.686.127 2.238-.428l-.47-.747s-1.38.789-2.543.324c0 0 1.762.07 2.43-.48l-.562-.675s-1.36.745-2.325.35c0 0 2.043-.123 2.192-.495 0 0-.553-.585-.776-.675 0 0-.988.506-1.527.233 0 0 1.348-.226 1.357-.376 0 0-.922-.571-1.545-.614.574.01 1.135.171 1.627.466a1.812 1.812 0 0 0-.505-.906s.642.073.73 1.046c0 0 .703.475.748.607 0 0 .05-.973-.232-1.553 0 0 .62.497.387 1.725l.579.664s.131-1.285-.08-1.82c0 0 .553.606.213 1.999l.467.726s.199-1.097.093-1.743c0 0 .39.674.033 1.957l.257.523s.13-.804.146-1.039c.017-.234.081-.25.081-.25a2.768 2.768 0 0 1-.116 1.507s.453 1.112.528 1.09z"/><ellipse cx="93.033" cy="139.311" fill="#009CE3" fill-rule="nonzero" opacity=".1" rx="4.54" ry="1"/><ellipse cx="9.128" cy="136.716" fill="#009CE3" fill-rule="nonzero" opacity=".1" rx="4.54" ry="1"/><ellipse cx="127.471" cy="138.544" fill="#009CE3" fill-rule="nonzero" opacity=".1" rx="4.54" ry="1"/></g></g></svg>