<svg xmlns="http://www.w3.org/2000/svg" width="160" height="133" viewBox="0 0 160 133"><g transform="translate(0 -3)" fill="none"><g opacity=".1"><path fill="#009CE3" d="M1.87 82.74c2.528 10.803 7.878 20.141 16.334 24.667 17.573 9.407 57.203 4.556 86.78-1.019a67.728 67.728 0 0 0 38.514-22.017L1.87 82.741zm155.102-50.844h-16.229a1.403 1.403 0 0 1 0-2.806h2.806a1.403 1.403 0 1 1 0-2.805h-2.004a1.403 1.403 0 0 1 0-2.805h8.47c-1.879-.874-4.076-1.496-6.606-1.822-23.096-2.967-31.342-1.004-34.25 1.02-3.59 2.489-7.593 4.32-11.872 5.203-14.25 2.939-40.9 6.477-65.054-1.133-12.005-3.785-20.928 2.609-26.276 13.29H159.79c-.201-3.105-.802-5.97-1.906-8.48a1.395 1.395 0 0 1-.911.338zM.494 60.196a71.492 71.492 0 0 0 .628 18.847l142.483 5.21a66.97 66.97 0 0 0 9.9-15.097L.494 60.196zm56.353 13.445h-2.805a1.403 1.403 0 1 1 0 2.806H37.813a1.403 1.403 0 0 1 0-2.806h2.806a1.403 1.403 0 0 1 0-2.805h-2.004a1.403 1.403 0 0 1 0-2.805h16.229a1.403 1.403 0 0 1 0 2.805h2.003a1.403 1.403 0 1 1 0 2.805zm102.95-33.508L4.237 43.918C2.347 48.781 1.099 54.28.517 59.981H157.07a66.455 66.455 0 0 0 2.26-10.24c.467-3.35.653-6.59.465-9.608zm-127.7 12.398h-2.805a1.403 1.403 0 1 1 0 2.806H13.064a1.403 1.403 0 1 1 0-2.806h2.805a1.403 1.403 0 1 1 0-2.805h-2.003a1.403 1.403 0 1 1 0-2.806h16.228a1.403 1.403 0 1 1 0 2.806h2.004a1.403 1.403 0 1 1 0 2.805z"/><path stroke="#535461" stroke-width="1.333" d="M98.788 110.887s4.106-10.118 11.772-13.872a16.546 16.546 0 0 0 7.514-7.286c.77-1.517 1.401-3.1 1.883-4.732"/><path fill="#009CE3" d="M124.774 82.602c-.8 1.005-4.935 2.475-4.935 2.475s.497-4.367 1.297-5.365a2.33 2.33 0 0 1 3.64 2.895l-.002-.005zm-1.42 7.958c-1.217.41-5.485-.609-5.485-.609s2.788-3.389 4.005-3.798a2.33 2.33 0 0 1 1.48 4.407zm-7.695 9.405c-1.257-.26-4.429-3.295-4.429-3.295s4.117-1.518 5.375-1.258a2.33 2.33 0 0 1-.946 4.551v.002zm-7.425 5.806c-1.283-.045-4.922-2.498-4.922-2.498s3.802-2.188 5.085-2.148a2.33 2.33 0 1 1-.163 4.646zm5.66-18.663c.165 1.274 2.944 4.67 2.944 4.67s1.83-3.99 1.667-5.264a2.33 2.33 0 0 0-4.61.594zm-8.598 6.9c.537 1.164 4.206 3.574 4.206 3.574s.553-4.355.016-5.52a2.33 2.33 0 1 0-4.222 1.947v-.001zm-7.437 7.852c.332 1.24 3.542 4.234 3.542 4.234s1.282-4.197.948-5.438a2.33 2.33 0 0 0-4.49 1.204z"/><path fill="#009CE3" d="M124.774 82.602c-.8 1.005-4.935 2.475-4.935 2.475s.497-4.367 1.297-5.365a2.33 2.33 0 0 1 3.64 2.895l-.002-.005zm-1.42 7.958c-1.217.41-5.485-.609-5.485-.609s2.788-3.389 4.005-3.798a2.33 2.33 0 0 1 1.48 4.407zm-7.695 9.405c-1.257-.26-4.429-3.295-4.429-3.295s4.117-1.518 5.375-1.258a2.33 2.33 0 0 1-.946 4.551v.002zm-7.425 5.806c-1.283-.045-4.922-2.498-4.922-2.498s3.802-2.188 5.085-2.148a2.33 2.33 0 1 1-.163 4.646zm5.66-18.663c.165 1.274 2.944 4.67 2.944 4.67s1.83-3.99 1.667-5.264a2.33 2.33 0 0 0-4.61.594zm-8.598 6.9c.537 1.164 4.206 3.574 4.206 3.574s.553-4.355.016-5.52a2.33 2.33 0 1 0-4.222 1.947v-.001zm-7.437 7.852c.332 1.24 3.542 4.234 3.542 4.234s1.282-4.197.948-5.438a2.33 2.33 0 0 0-4.49 1.204z" opacity=".25"/><path stroke="#535461" stroke-width="1.333" d="M95.876 96.093s.518-10.908 6.506-16.992a16.546 16.546 0 0 0 4.66-9.368c.224-1.685.293-3.387.207-5.084"/><path fill="#009CE3" d="M111.017 60.792c-.42 1.213-3.836 3.969-3.836 3.969s-.976-4.279-.555-5.492a2.33 2.33 0 1 1 4.391 1.523zm1.293 7.972c-1.02.79-5.378 1.247-5.378 1.247s1.507-4.123 2.519-4.912a2.33 2.33 0 1 1 2.859 3.665zm-4.142 11.432c-1.272.17-5.27-1.64-5.27-1.64s3.382-2.798 4.659-2.968a2.33 2.33 0 1 1 .617 4.608h-.006zm-5.08 7.939c-1.225.383-5.472-.728-5.472-.728s2.86-3.33 4.085-3.713a2.33 2.33 0 0 1 1.387 4.438v.003zm-.848-19.484c.582 1.147 4.327 3.429 4.327 3.429s.403-4.368-.174-5.518a2.33 2.33 0 0 0-4.153 2.089zm-5.824 9.361c.894.922 5.154 1.977 5.154 1.977s-.922-4.29-1.815-5.212a2.33 2.33 0 0 0-3.339 3.237v-.002zm-4.411 9.874c.728 1.06 4.746 2.82 4.746 2.82s-.183-4.385-.908-5.445a2.33 2.33 0 0 0-3.837 2.62l-.001.005zm-57.23 39.804c7.428 2.497 16.49.978 24.918 1.154 1.155.024 2.375.096 3.3.527.926.43 1.382 1.133 2.016 1.728 2.362 2.228 7.2 2.944 11.43 2.566 4.23-.378 8.108-1.628 12.09-2.58 6.9-1.648 14.788-2.396 21.593-.601.625.164 1.282.353 1.951.289 1.493-.148 1.936-1.342 2.98-2.024 1.889-1.231 5.975-.897 6.8-2.52.486-.944-.63-1.927-1.845-2.577-4.652-2.486-11.305-2.896-17.392-2.512-6.087.383-12.072 1.441-18.191 1.445-7.623 0-14.99-1.623-22.538-2.288-5.23-.46-10.937-.404-15.84.945-5.299 1.477-6.47 4.772-11.272 6.448z"/></g><path fill="#009CE3" d="M36.669 19.339h1.908a1.337 1.337 0 0 1 0-2.672h15.455a1.337 1.337 0 0 1 0 2.672h-1.908a1.335 1.335 0 1 1 0 2.67h2.671a1.337 1.337 0 0 1 0 2.673H39.339a1.337 1.337 0 0 1 0-2.673h-2.67a1.335 1.335 0 1 1 0-2.67z" opacity=".1"/><g fill="#009CE3" transform="translate(63.333 9.333)"><path d="M7.37 5.685a.426.426 0 0 0-.137-.55.212.212 0 0 1 .218-.363c.192.1.429.041.55-.138a.245.245 0 0 1 .032-.037.214.214 0 0 1 .35.21.2.2 0 0 1-.018.045.426.426 0 0 0 .137.55.235.235 0 0 1 .038.03.214.214 0 0 1-.256.334.426.426 0 0 0-.55.138.173.173 0 0 1-.03.035.214.214 0 0 1-.351-.209.2.2 0 0 1 .017-.045zM.23 1.144A.425.425 0 0 0 .093.595.214.214 0 0 1 .266.212.2.2 0 0 1 .311.23a.425.425 0 0 0 .55-.136.253.253 0 0 1 .03-.037.214.214 0 0 1 .352.205.221.221 0 0 1-.018.043.426.426 0 0 0 .137.555.18.18 0 0 1 .036.031.212.212 0 0 1-.215.352.15.15 0 0 1-.045-.018.428.428 0 0 0-.55.137.19.19 0 0 1-.032.038.214.214 0 0 1-.35-.211.281.281 0 0 1 .024-.045z" opacity=".3"/><circle cx="18.224" cy="15.445" r="2.467" opacity=".1"/><circle cx="29.887" cy="3.196" r="1.346" opacity=".1"/></g><g fill="#009CE3" transform="rotate(-11 86.052 -664.717)"><path d="M14.543 5.462a.423.423 0 0 0-.138-.549.214.214 0 0 1 .175-.383c.015.005.03.011.044.019a.425.425 0 0 0 .55-.138.214.214 0 0 1 .381.175.15.15 0 0 1-.018.043c-.1.192-.04.428.138.55a.214.214 0 0 1-.173.381.187.187 0 0 1-.045-.017.426.426 0 0 0-.55.137.377.377 0 0 1-.03.038.214.214 0 0 1-.334-.256z" opacity=".3"/><circle cx="2.589" cy="2.579" r="2.467" opacity=".1"/><circle cx="19.961" cy="17.026" r="1.346" opacity=".1"/></g><g fill="#009CE3" transform="rotate(80 27.69 134.5)"><path d="M14.543 5.462a.423.423 0 0 0-.138-.549.214.214 0 0 1 .175-.383c.015.005.03.011.044.019a.425.425 0 0 0 .55-.138.214.214 0 0 1 .381.175.15.15 0 0 1-.018.043c-.1.192-.04.428.138.55a.214.214 0 0 1-.173.381.187.187 0 0 1-.045-.017.426.426 0 0 0-.55.137.377.377 0 0 1-.03.038.214.214 0 0 1-.334-.256z" opacity=".3"/><circle cx="2.589" cy="2.579" r="2.467" opacity=".1"/><circle cx="19.961" cy="17.026" r="1.346" opacity=".1"/></g><g fill="#009CE3" opacity=".1" transform="translate(6.667 110)"><circle cx="6.691" cy="1.918" r="1.346"/><circle cx="11.85" cy="7.978" r="1.346"/><circle cx="1.756" cy="11.631" r="1.346"/></g><ellipse cx="28.667" cy="134.012" fill="#009CE3" opacity=".1" rx="6.667" ry="1.346"/><ellipse cx="109.333" cy="134.012" fill="#009CE3" opacity=".1" rx="6.667" ry="1.346"/><g transform="translate(8 52)"><path fill="#FFF" stroke="#E0E0E0" stroke-width="1.333" d="M24 67.333h96.667V2.667a2 2 0 0 0-2-2H26a2 2 0 0 0-2 2v64.666z"/><path stroke="#E0E0E0" stroke-linecap="square" stroke-width="1.333" d="M24.333 11.667h96.334"/><circle cx="29.333" cy="6" r="2" fill="#EB6262"/><circle cx="34.667" cy="6" r="2" fill="#F8AC58"/><circle cx="40" cy="6" r="2" fill="#1BB393"/><path fill="#FFF" stroke="#E0E0E0" stroke-width="1.333" d="M14.667 68h112.667v1H14.667z"/><path stroke="#E0E0E0" stroke-linecap="round" stroke-width="1.333" d="M16.333 67.5h112m6-.028h6m2 .062h2m-14 0h2m-132 0h2m10 0h2m-10 0h6"/></g><rect width="7.333" height="10.667" x="94.667" y="98.667" fill="#FFF" stroke="#E0E0E0" stroke-width="1.333" rx="3.667"/><path stroke="#E0E0E0" stroke-linecap="round" stroke-width="1.333" d="M98.333 103.667V107"/><path fill="#FFF" stroke="#FFF" stroke-width=".667" d="M89.667 91.667H107v12H89.667z"/><path d="m52.714 81.38 9.428 9.429m0-9.428-9.428 9.428m44.666-9.428 9.429 9.428m0-9.428L97.38 90.81" stroke="#E0E0E0" stroke-linecap="round" stroke-width="2.667"/><path stroke="#E0E0E0" stroke-linecap="round" stroke-width="1.333" d="M57.667 103.667h44.666M81.834 91.166a1.667 1.667 0 0 0 0 3.334"/><path fill="#FFF" stroke="#FFF" stroke-width=".667" d="M85.667 91h4v4.667h-4z"/></g></svg>